/* XPM */
static char *WallU[] = {
/* columns rows colors chars-per-pixel */
"100 100 3 1 ",
"  c #464646",
". c #22B14C",
"X c #B4B4B4",
/* pixels */
"                                                                                                    ",
"                                                                                                    ",
"                                                                                                    ",
"                                                                                                    ",
"                                                                                                    ",
"                                        X                                                           ",
"                                         X                                                          ",
"                                          X                                                         ",
"                                           X                                                        ",
"                                            X                 XX                                    ",
"                                            XX              XXX                                     ",
"                                             X          XXXX                                        ",
"                                              X        XX                                           ",
"                                              XX     XX                                             ",
"                                               X   XX                                               ",
"                                                XXX                                                 ",
"                                                X                                                   ",
"                                              XX X                                                  ",
"                                             X   XX                                                 ",
"                                           XX      X                                                ",
"                                         XX        X                                                ",
"                                        X          X                                                ",
"                                     XXX            X                                               ",
"                                    XX              XX                                              ",
"                                                     X                                              ",
"                                                     X                                              ",
"                                                                                                    ",
"                                                                             .                      ",
"                                         ..                                  .                      ",
"                                         .                                   .                      ",
"                                         .                                    .                     ",
"                                         .                                    .                     ",
"              .                          .                                    .                     ",
"              .           .               .                   .               .                     ",
"              .           .               .                   .               .                     ",
"              .           .               .                   .               .                     ",
"              ..          .               .                   .               .                     ",
"               .           .               .                  .               .                     ",
"               .           .               .                  .                .                    ",
"               .           .               .                  .                .                    ",
"               .           .               .                  .                .                    ",
"               .           .                .                 .                .                    ",
"               .           .                .                 .                .                    ",
"               .           .                 .                 .               .                    ",
"               .           .                 .                 .               .                    ",
"               .           .                 .                 .               .                    ",
"               .           .                 .                 .               .                    ",
"               .           .                 .                 .               .                    ",
"              .            .                 .                 .               .                    ",
"              .           ..                 .                 .               .                    ",
"....................................................................................................",
"....................................................................................................",
"....................................................................................................",
"....................................................................................................",
"....................................................................................................",
"....................................................................................................",
"....................................................................................................",
"....................................................................................................",
"....................................................................................................",
"....................................................................................................",
"....................................................................................................",
"....................................................................................................",
"....................................................................................................",
"....................................................................................................",
"....................................................................................................",
"....................................................................................................",
"....................................................................................................",
"....................................................................................................",
"....................................................................................................",
"....................................................................................................",
"....................................................................................................",
"....................................................................................................",
"....................................................................................................",
"....................................................................................................",
"....................................................................................................",
"....................................................................................................",
"....................................................................................................",
"....................................................................................................",
"....................................................................................................",
"....................................................................................................",
"....................................................................................................",
"....................................................................................................",
"....................................................................................................",
"....................................................................................................",
"....................................................................................................",
"....................................................................................................",
"....................................................................................................",
"....................................................................................................",
"....................................................................................................",
"....................................................................................................",
"....................................................................................................",
"....................................................................................................",
"....................................................................................................",
"....................................................................................................",
"....................................................................................................",
"....................................................................................................",
"....................................................................................................",
"....................................................................................................",
"....................................................................................................",
"...................................................................................................."
};
