/* XPM */
static char *WallD[] = {
/* columns rows colors chars-per-pixel */
"100 100 4 1 ",
"  c #420306",
". c #464646",
"X c #ED1C24",
"o c #22B14C",
/* pixels */
"............X.............X..................X..............X.................X.....................",
"............X.............X...................X.............X.................X.....................",
"...........XX..............X..................X..............X................XX....................",
"...........X...............X..................X..............X.................X....................",
"...........X...............X...................X..............X................X....................",
"...........X................X..................XX.............X................XX...................",
"..........X.................X..................XXX............X.................X...................",
"..........X.................X...................XX............X.................X...................",
"..........X..................X..................X..............X.................X..................",
"..........X..................X..................X..............X.................X..................",
"..........X..................X..................X..............X.................X..................",
"..........X..................X...................X.............X..................X.................",
".........X....................X..................X..............X.................X.................",
".........X....................X..................X..............X.................XX................",
".........X....................X..................X...............X.................X................",
".........X....................X..................XX..............X.................XX...............",
".........X....................X...................X...............X.................X...............",
".........X....................X...................X...............X.................X...............",
".........X....................X...................XX..............X.................XX..............",
".........X....................X....................X..............XX.................X..............",
".........X....................X....................X...............X.................X..............",
".........X.....................X...................X...............X.................X..............",
".........X.....................X....................X..............XX................X..............",
".........X.....................X....................X...............X...............X...............",
".........X.....................X....................X...............X...............X...............",
".........X.....................X....................X...............X...............X...............",
".........X.....................X....................X...............X...............X...............",
".........X.....................X....................X...............X........o......X...............",
".........X.....................X.........oo.........X...............X........o......X...............",
"..........X....................X.........o..........X...............X........o......X...............",
"..........X....................X.........o..........X...............X.........o.....X...............",
"..........X....................X.........o..........X...............X.........o.....X...............",
"..........X...o................X.........o..........X...............X.........o.....X...............",
"..........X...o...........o....X..........o.........X.........o.....X.........o.....X...............",
"..........X...o...........o....X..........o.........X.........o.....X.........o.....X...............",
"..........X...o...........o....X..........o.........X.........o.....X.........o.....X...............",
"..........X...oo..........o....XX.........o.........X.........o.....X.........o.....X...............",
"..........X....o...........o....X..........o........X.........o.....X.........o.....X...............",
"..........X....o...........o....X..........o........X.........o.....X..........o....X...............",
"..........X....o...........o....X..........o........X.........o.....X..........o....X...............",
".........XX....o...........o....XX.........o........X.........o.....X..........o....XX..............",
".........X.....o...........o.....X..........o......XX.........o.....X..........o.....X..............",
".........X.....o...........o.....X..........o......XX.........o.....X..........o.....X..............",
".........X.....o...........o.....X...........o......X..........o....X..........o.....XX.............",
"........XX.....o...........o.....X...........o......XX.........o.....X.........o......X.............",
"........X......o...........o.....XX..........o.......X.........o.....X.........o......X.............",
"........X......o...........o......X..........o.......XX........o.....X.........o.......X............",
"........X......o...........o......X..........o........X........o.....XX........o.......XX...........",
".......X......o............o......X..........o........XX.......o......X........o........X...........",
".......X......o...........oo......X..........o.........X.......o......XX.......o........X...........",
"ooooooo oooooooooooooooooooooooooo oooooooooooooooooooo oooooooooooooo  oooooooooooooooo ooooooooooo",
"ooooooo oooooooooooooooooooooooooo ooooooooooooooooooo  ooooooooooooooo oooooooooooooooo ooooooooooo",
"ooooooo oooooooooooooooooooooooooo ooooooooooooooooooo oooooooooooooooo oooooooooooooooo ooooooooooo",
"ooooooo oooooooooooooooooooooooooo oooooooooooooooooo  oooooooooooooooo oooooooooooooooo ooooooooooo",
"ooooooo oooooooooooooooooooooooooo oooooooooooooooooo oooooooooooooooooo ooooooooooooooo ooooooooooo",
"ooooooo oooooooooooooooooooooooooo oooooooooooooooooo oooooooooooooooooo ooooooooooooooo ooooooooooo",
"ooooooo oooooooooooooooooooooooooo oooooooooooooooooo oooooooooooooooooo ooooooooooooooo ooooooooooo",
"ooooooo oooooooooooooooooooooooooo ooooooooooooooooo  oooooooooooooooooo ooooooooooooooo ooooooooooo",
"ooooooo oooooooooooooooooooooooooo ooooooooooooooooo ooooooooooooooooooo oooooooooooooooo oooooooooo",
"ooooooo oooooooooooooooooooooooooo ooooooooooooooooo ooooooooooooooooooo oooooooooooooooo oooooooooo",
"oooooooo oooooooooooooooooooooooooo oooooooooooooooo ooooooooooooooooooo oooooooooooooooo oooooooooo",
"oooooooo oooooooooooooooooooooooooo oooooooooooooooo ooooooooooooooooooo oooooooooooooooo oooooooooo",
"oooooooo oooooooooooooooooooooooooo oooooooooooooooo ooooooooooooooooooo oooooooooooooooo oooooooooo",
"oooooooo oooooooooooooooooooooooooo oooooooooooooooo ooooooooooooooooooo oooooooooooooooo oooooooooo",
"oooooooo oooooooooooooooooooooooooo oooooooooooooooo ooooooooooooooooooo oooooooooooooooo oooooooooo",
"oooooooo oooooooooooooooooooooooooo oooooooooooooooo ooooooooooooooooooo oooooooooooooooo oooooooooo",
"oooooooo oooooooooooooooooooooooooo oooooooooooooooo ooooooooooooooooooo oooooooooooooooo oooooooooo",
"oooooooo oooooooooooooooooooooooooo oooooooooooooooo ooooooooooooooooooo ooooooooooooooooo ooooooooo",
"oooooooo oooooooooooooooooooooooooo oooooooooooooooo ooooooooooooooooooo ooooooooooooooooo ooooooooo",
"oooooooo oooooooooooooooooooooooooo oooooooooooooooo ooooooooooooooooooo ooooooooooooooooo ooooooooo",
"oooooooo oooooooooooooooooooooooooo ooooooooooooooooo oooooooooooooooooo ooooooooooooooooo ooooooooo",
"oooooooo oooooooooooooooooooooooooo ooooooooooooooooo oooooooooooooooooo ooooooooooooooooo ooooooooo",
"oooooooo oooooooooooooooooooooooooo ooooooooooooooooo oooooooooooooooooo ooooooooooooooooo ooooooooo",
"oooooooo oooooooooooooooooooooooooo ooooooooooooooooo oooooooooooooooooo ooooooooooooooooo ooooooooo",
"oooooooo oooooooooooooooooooooooooo ooooooooooooooooo oooooooooooooooooo oooooooooooooooooo oooooooo",
"oooooooo oooooooooooooooooooooooooo ooooooooooooooooo oooooooooooooooooo oooooooooooooooooo oooooooo",
"oooooooo oooooooooooooooooooooooooo ooooooooooooooooo oooooooooooooooooo oooooooooooooooooo oooooooo",
"oooooooo ooooooooooooooooooooooooooo oooooooooooooooo oooooooooooooooooo oooooooooooooooooo oooooooo",
"oooooooo ooooooooooooooooooooooooooo oooooooooooooooo oooooooooooooooooo oooooooooooooooooo oooooooo",
"oooooooo ooooooooooooooooooooooooooo ooooooooooooooooo ooooooooooooooooo oooooooooooooooooo oooooooo",
"oooooooo ooooooooooooooooooooooooooo ooooooooooooooooo ooooooooooooooooo oooooooooooooooooo oooooooo",
"oooooooo ooooooooooooooooooooooooooo ooooooooooooooooo ooooooooooooooooo oooooooooooooooooo oooooooo",
"oooooooo ooooooooooooooooooooooooooo ooooooooooooooooo ooooooooooooooooo oooooooooooooooooo oooooooo",
"oooooooo ooooooooooooooooooooooooooo ooooooooooooooooo ooooooooooooooooo ooooooooooooooooooo ooooooo",
"oooooooo ooooooooooooooooooooooooooo ooooooooooooooooo ooooooooooooooooo ooooooooooooooooooo ooooooo",
"ooooooooo oooooooooooooooooooooooooo ooooooooooooooooo oooooooooooooooooo oooooooooooooooooo ooooooo",
"ooooooooo oooooooooooooooooooooooooo ooooooooooooooooo oooooooooooooooooo oooooooooooooooooo ooooooo",
"ooooooooo oooooooooooooooooooooooooo ooooooooooooooooo oooooooooooooooooo oooooooooooooooooo ooooooo",
"ooooooooo oooooooooooooooooooooooooo ooooooooooooooooo oooooooooooooooooo oooooooooooooooooo ooooooo",
"ooooooooo oooooooooooooooooooooooooo  oooooooooooooooo oooooooooooooooooo oooooooooooooooooo ooooooo",
"oooooooooo oooooooooooooooooooooooooo oooooooooooooooo oooooooooooooooooo oooooooooooooooooo ooooooo",
"oooooooooo oooooooooooooooooooooooooo oooooooooooooooo oooooooooooooooooo oooooooooooooooooo ooooooo",
"oooooooooo oooooooooooooooooooooooooo ooooooooooooooooo ooooooooooooooooo oooooooooooooooooo ooooooo",
"oooooooooo oooooooooooooooooooooooooo ooooooooooooooooo ooooooooooooooooo oooooooooooooooooo ooooooo",
"ooooooooooo ooooooooooooooooooooooooo ooooooooooooooooo oooooooooooooooooo oooooooooooooooooo oooooo",
"ooooooooooo oooooooooooooooooooooooooo oooooooooooooooo oooooooooooooooooo oooooooooooooooooo oooooo",
"ooooooooooo oooooooooooooooooooooooooo oooooooooooooooo oooooooooooooooooo oooooooooooooooooo oooooo",
"ooooooooooo ooooooooooooooooooooooooooo  oooooooooooooo oooooooooooooooooo oooooooooooooooooo oooooo",
"ooooooooooo  ooooooooooooooooooooooooooo oooooooooooooo ooooooooooooooooooo ooooooooooooooooo oooooo",
"oooooooooooo ooooooooooooooooooooooooooo oooooooooooooo ooooooooooooooooooo ooooooooooooooooo oooooo"
};
