/* XPM */
static char *sky[] = {
/* columns rows colors chars-per-pixel */
"100 100 40 1 ",
"  c #00B7EF",
". c #3EC9F3",
"X c #6DD6F6",
"o c #21C0F1",
"O c #90E0F8",
"+ c #ABE7FA",
"@ c #F5FCFE",
"# c #FDFEFF",
"$ c #F1FBFE",
"% c #EFFAFE",
"& c #EAF9FE",
"* c #EDFAFE",
"= c #CCF1FC",
"- c #57D0F4",
"; c #DFF6FD",
": c #FBFEFF",
"> c #BBECFB",
", c #C4EEFB",
"< c #E7F8FD",
"1 c #B1E9FA",
"2 c white",
"3 c #F7FDFE",
"4 c #A5E6F9",
"5 c #FCFEFF",
"6 c #E3F7FD",
"7 c #D8F4FD",
"8 c #F9FDFF",
"9 c #F4FCFE",
"0 c #F6FCFE",
"q c #FEFFFF",
"w c #F8FDFF",
"e c #B5EAFA",
"r c #CBF0FC",
"t c #E5F8FD",
"y c #80DBF7",
"u c #9EE4F9",
"i c #F3FCFE",
"p c #D2F2FC",
"a c #D3F3FC",
"s c #D9F4FD",
/* pixels */
"                                                                                                    ",
"                                                                                                    ",
"                                                                                                    ",
"                                                                                                    ",
"                                                                                                    ",
"                                                                                                    ",
"                                                                                                    ",
"                                                                                                    ",
"                                                                                                    ",
"                                                                                                    ",
"                                                               .XXXXX.......o                       ",
"                                                             .XXXXX.......o  ..o..o..o              ",
"            ......                                          .O+@#####@@@$%&*=-X-o..o                ",
"          ..XXXX                                             ;:::::;;;;;;;>X-&*,%$=&<1..o           ",
"         .OO$$****XX-.       o                              ;::2222222222222233<1;;4                ",
"         .**5555XX-.  .o...-..                                2222222222222222222222226>.o          ",
"         ;::2222225#7%X-X.-- 4  o                            22222222222222222222222222;4           ",
"         ;;222222225&-*=*$%8<<...                           .X222222222222222222222222224           ",
"          222222222222356<9; 2 4 o                         ;:::222222222222222222222222             ",
"         .222222222222222222222<>.                           ;2222222222222#0222222222.o            ",
"        ;<<2222222222222222222229                              .X*22222255522222qqqqwe              ",
"        ;;:222222222222222222222;                                            ..650@50@:94           ",
"          ;:2222222222222222222o                                                                    ",
"            ..522222q#22222222..                                                                    ",
"                ..<522222222#* 44                                                                   ",
"                      .o<00555::;                                                                   ",
"                                                                                                    ",
"                                                                                                    ",
"                                                                                                    ",
"                                                                                                    ",
"                                                                                                    ",
"                                                                                                    ",
"                                                                                                    ",
"                                                                                                    ",
"                                                                                                    ",
"                                                                                                    ",
"                                                                                                    ",
"                                                                                                    ",
"                                                                                                    ",
"                                                                                                    ",
"                                                                                                    ",
"                                                                                                    ",
"                                                                                                    ",
"                                                                                                    ",
"                                                                                                    ",
"                                                                                                    ",
"                                                                                                    ",
"                                                                                                    ",
"                                                                                                    ",
"                                                                                                    ",
"              o....oX-X....                                                                         ",
"            o....oX-X..X-.oXX-XXX.                                                                  ",
"           o-Xr*&$0t#5#3$@$yOOX.                                                                    ",
"            4;;;;4:95&&#89tqq5q#5*XX.                                                               ",
"           4;;2222222222222q255;                                     .X-XX.o                        ",
"             2222222222222222222225*X.                             .X-XX.o...o.o.....o              ",
"            22222222222222222222222:;                             .Oui#:##%pO--....o                ",
"           o.22222222222222222222222;                              ;:9:5*=&&&a$s%$*&<>..o           ",
"          4;;;222222222222222222222                               ;:92222222#*<6;;;4                ",
"            49q22q2222222222222222X.                                222222222222222222<>.o          ",
"              o.>35:#q22222222222&                                 22222222222222222222;4           ",
"                       .o<@88q222222;                             .X222222222222222222224           ",
"                                                                 ;:9:222222222222222222             ",
"                                                                   ;222222222222222222.o            ",
"                                                                     .X&2222222q222qwe              ",
"                                                                          ..<55@000555:94           ",
"                                                                                                    ",
"                                                                                                    ",
"                                                                                                    ",
"                                                                                                    ",
"                                                                                                    ",
"                                                                                                    ",
"                                                                                                    ",
"                                                                                                    ",
"                                                                                                    ",
"                                                                                                    ",
"                                                                                                    ",
"                                                                                                    ",
"                                                                                                    ",
"                                                                                                    ",
"                                                                                                    ",
"                                                                                                    ",
"                                                                                                    ",
"                                                                                                    ",
"                                                                                                    ",
"                                                                                                    ",
"                                                                                                    ",
"                                                                                                    ",
"                                                                                                    ",
"                                                                                                    ",
"                                                                                                    ",
"                                                                                                    ",
"                                                                                                    ",
"                                                                                                    ",
"                                                                                                    ",
"                                                                                                    ",
"                                                                                                    ",
"                                                                                                    ",
"                                                                                                    ",
"                                                                                                    "
};
