/* XPM */
static char *result[] = {
/* columns rows colors chars-per-pixel */
"32 32 7 1 ",
"  c #2C2E31",
". c #444A4A",
"X c #4E5555",
"o c #677073",
"O c #909A9A",
"+ c #B5C0BD",
"@ c #CCD7D2",
/* pixels */
"++++++++++++++++++++++++++++++++",
"++++++++++++++++++++++++++++++++",
"++++++++++++++++++++++++++++++++",
"                                ",
"XXXXXXXXXXXXXXXXXXXXXXXXXXXXXXXX",
"XoooooXXXXooooXXXXXXXoXXXXXXoXXX",
"OOOOoOOO++O++O++++@@@@@+oo++++Oo",
"@@@+OOO++++@@+@@@@@@@@@@+++@@+++",
"@@@+OOO@@@@@@+++++++++++@@+@@@++",
"++@@+O++@@+++++++++++++++@++@@++",
"++++++++++++++++++++++++++++++++",
"++++++++++++++++++++++++++++++++",
"++++++++++++++++++++++++++++++++",
"++++++++++O+++++++++++++++++++++",
"+O+++++++OOO++++++++++++++++++++",
"+O++++++OOOO++++++++++++++++O+++",
"OO++O+++OOOO++OO+++++++++OO++O++",
"+OOOO++OO++OOOOOO+++++++O++O+OO+",
"OOOOOOOOO+++OOOOO++O++OOO++OOO+O",
"OOooOOOOOO++OOOOOOOO++++OOOOO+++",
"OOooOOOOOOOOOOOOooOOOO++OOOO+++O",
"OOOOOOoOOOOOOooOoooOOOOOOOoOOOOO",
"OOOoOOooOOOOoOooOOooOooOOOooOooo",
"OOOoooXXoOOooOOOOOoooooOOOoooXXo",
"oOOoooXXooooooOOoooooOOOoooooXXX",
"ooooXXooooooooooooooooooooXXooXX",
"ooooXXXXXXXXoXXoXXooooooooXXXXoo",
"XXXXXXXXXXXXXXXXXXXXXXXXXXXXXXXX",
"................................",
"@@@@@@@@@@@@@@@@@@@@@@@@@@@@@@@@",
"@@@@@@@@@@@@@@@@@@@@@@@@@@@@@@@@",
"@+@+@@@@@+@+@+@+@+@@@@@@@@@@@+++"
};
