/* XPM */
static char *_c74d49af4644450f513c6987e6610f7xLAtNgvtUOOgpOSB[] = {
/* columns rows colors chars-per-pixel */
"32 32 5 1 ",
"  c #330C26",
". c #4E2626",
"X c #8F563B",
"o c #AD8643",
"O c #CAB980",
/* pixels */
" .           ............       ",
"OoOOOOOOOoooOOo.ooOOOOOoOOOOooOO",
"XXoooooXoOOOoXX.XXooXXXXoXXXXXoo",
"ooXXXXXoXXXXXXX XXXXoXXXXooXXXXX",
"XXooXXXXooXXXXo ooXXXooXXXXooXXX",
"XXXXooXXXXooooX XXooXXXooXXXXooX",
"oXXXXXooXXXXXXX XXXXooXXXoooXXXo",
"XoXXXXXXooXXXXX.XXXXXXooXXXXoXXX",
".  .........     ...            ",
"OoOOOo.XXXoooXXXXooOOOOOoOOOOoOO",
"XXooXX.XXXXXXoooXXXooXXXXoXXXXoX",
"XXXXoo oooXXXXXXooXXXoXXXXooXXXo",
"oXXXXX XXXooXXXXXXoXXXoXXXXXoXXX",
"XoXXXX ooXXXooXXXXXoXXXoXXXXXoXX",
"XXoXXX.XXoooXXooXXXXoXXXoXXXXXoX",
"XXXoXX.XXoXXoXXXoooXXooXXoXXXXXo",
"............      .     . ......",
"oOOOOOOOooOOoOO.OOooOOOoooOOOOOO",
"XXXXXooXXXXoXXX.ooXXooXXXXoXXXXo",
"oooooXXXXXoXXXo.XXXXXXoXXXXoXXXX",
"XXXXXXXXXoXXXoX.XoooXXXoXXXXooXX",
"oXXXXooooXXXoXX.oXXXooXXoXXXXXoo",
"XooooXXXXXooXXX.oXXXXXoXXoooXXXX",
"oXXXXXXXooXXXXX.XoXXXXXoXXXXoooo",
"....        .....          .....",
"oOOOOOOOOOOooOOOOoOOOOOoOOOOoOO.",
"XXXXoooooXXXXooooXXXXooXXXXoXXX.",
"XoooXXXXXoooXXXXXooooXXXXXoXXXX.",
"oXXXXXXXXXXXoooooXXXXXXXooXXXXo.",
"XXXXXooooXXXXXXXXXXXXXooXXXoooX.",
"XXoooXXXXoooooXXXXXoooXXoooXXXX.",
"XoXXXXXXXXXXXXoooooXXXXoXXXXXXX."
};
